<!-- Generated by IcoMoon.io -->
<svg version="1.1" xmlns="http://www.w3.org/2000/svg" width="1024" height="1024" viewBox="0 0 1024 1024">
<title></title>
<g id="icomoon-ignore">
</g>
<path fill="none" stroke-linejoin="round" stroke-linecap="round" stroke-miterlimit="4" stroke-width="85.3333"  d="M399.112 896c30.085 26.556 69.607 42.667 112.888 42.667 43.285 0 82.803-16.111 112.887-42.667M768 341.333c0-67.895-26.97-133.010-74.978-181.019-48.013-48.009-113.126-74.981-181.022-74.981s-133.009 26.971-181.018 74.981c-48.009 48.009-74.981 113.124-74.981 181.019 0 131.849-33.26 222.123-70.415 281.83-31.34 50.368-47.010 75.55-46.436 82.577 0.637 7.778 2.284 10.743 8.553 15.394 5.661 4.198 31.182 4.198 82.222 4.198h564.153c51.038 0 76.561 0 82.219-4.198 6.272-4.651 7.919-7.616 8.555-15.394 0.576-7.027-15.095-32.209-46.434-82.577-37.158-59.708-70.417-149.982-70.417-281.83z"></path>
</svg>
