<!-- Generated by IcoMoon.io -->
<svg version="1.1" xmlns="http://www.w3.org/2000/svg" width="1024" height="1024" viewBox="0 0 1024 1024">
<title></title>
<g id="icomoon-ignore">
</g>
<path fill="none" stroke-linejoin="round" stroke-linecap="round" stroke-miterlimit="4" stroke-width="85.3333" stroke="#000" d="M554.667 298.667l-47.595-95.193c-13.7-27.397-20.548-41.096-30.767-51.104-9.037-8.85-19.93-15.581-31.885-19.706-13.521-4.664-28.838-4.664-59.469-4.664h-163.084c-47.791 0-71.687 0-89.94 9.301-16.057 8.181-29.111 21.235-37.292 37.292-9.301 18.254-9.301 42.15-9.301 89.94v34.133M85.333 298.667h648.533c71.689 0 107.529 0 134.912 13.951 24.085 12.272 43.665 31.853 55.936 55.938 13.952 27.38 13.952 63.222 13.952 134.911v187.733c0 71.689 0 107.529-13.952 134.912-12.271 24.085-31.851 43.665-55.936 55.936-27.383 13.952-63.223 13.952-134.912 13.952h-443.733c-71.687 0-107.53 0-134.911-13.952-24.085-12.271-43.666-31.851-55.938-55.936-13.951-27.383-13.951-63.223-13.951-134.912v-392.533z"></path>
</svg>
