<!-- Generated by IcoMoon.io -->
<svg version="1.1" xmlns="http://www.w3.org/2000/svg" width="1024" height="1024" viewBox="0 0 1024 1024">
<title></title>
<g id="icomoon-ignore">
</g>
<path fill="none" stroke-linejoin="round" stroke-linecap="round" stroke-miterlimit="4" stroke-width="85.3333"  d="M387.84 384c10.031-28.515 29.83-52.561 55.893-67.877 26.061-15.316 56.7-20.915 86.494-15.805s56.815 20.6 76.284 43.726c19.465 23.125 30.123 52.394 30.076 82.623 0 85.333-128 128-128 128M512 725.333h0.427M938.667 512c0 235.639-191.027 426.667-426.667 426.667-235.642 0-426.667-191.027-426.667-426.667 0-235.642 191.025-426.667 426.667-426.667 235.639 0 426.667 191.025 426.667 426.667z"></path>
</svg>
