<!-- Generated by IcoMoon.io -->
<svg version="1.1" xmlns="http://www.w3.org/2000/svg" width="1024" height="1024" viewBox="0 0 1024 1024">
<title></title>
<g id="icomoon-ignore">
</g>
<path fill="none" stroke-linejoin="round" stroke-linecap="round" stroke-miterlimit="4" stroke-width="85.3333" d="M85.333 512.004l411.401 205.7c5.598 2.799 8.397 4.198 11.332 4.749 2.598 0.486 5.269 0.486 7.868 0 2.935-0.55 5.734-1.95 11.332-4.749l411.401-205.7M85.333 725.338l411.401 205.7c5.598 2.799 8.397 4.198 11.332 4.749 2.598 0.486 5.269 0.486 7.868 0 2.935-0.55 5.734-1.95 11.332-4.749l411.401-205.7M85.333 298.669l411.401-205.701c5.598-2.799 8.397-4.198 11.332-4.748 2.598-0.488 5.269-0.488 7.868 0 2.935 0.55 5.734 1.95 11.332 4.748l411.401 205.701-411.401 205.702c-5.598 2.799-8.397 4.198-11.332 4.749-2.598 0.486-5.269 0.486-7.868 0-2.935-0.55-5.734-1.95-11.332-4.749l-411.401-205.702z"></path>
</svg>
