<!-- Generated by IcoMoon.io -->
<svg version="1.1" xmlns="http://www.w3.org/2000/svg" width="1024" height="1024" viewBox="0 0 1024 1024">
<title></title>
<g id="icomoon-ignore">
</g>
<path fill="none" stroke-linejoin="round" stroke-linecap="round" stroke-miterlimit="4" stroke-width="85.3333" d="M725.333 426.667v-85.333c0-117.821-95.514-213.333-213.333-213.333s-213.333 95.513-213.333 213.333v85.333M512 618.667v85.333M375.467 896h273.067c71.689 0 107.529 0 134.912-13.952 24.085-12.271 43.665-31.851 55.936-55.936 13.952-27.383 13.952-63.223 13.952-134.912v-59.733c0-71.689 0-107.529-13.952-134.912-12.271-24.085-31.851-43.665-55.936-55.936-27.383-13.952-63.223-13.952-134.912-13.952h-273.067c-71.687 0-107.53 0-134.911 13.952-24.085 12.271-43.666 31.851-55.938 55.936-13.951 27.383-13.951 63.223-13.951 134.912v59.733c0 71.689 0 107.529 13.951 134.912 12.272 24.085 31.853 43.665 55.938 55.936 27.38 13.952 63.224 13.952 134.911 13.952z"></path>
</svg>
