<!-- Generated by IcoMoon.io -->
<svg version="1.1" xmlns="http://www.w3.org/2000/svg" width="1024" height="1024" viewBox="0 0 1024 1024">
<title></title>
<g id="icomoon-ignore">
</g>
<path fill="none" stroke-linejoin="round" stroke-linecap="round" stroke-miterlimit="4" stroke-width="85.3333"  d="M512 640c70.694 0 128-57.306 128-128s-57.306-128-128-128c-70.694 0-128 57.306-128 128s57.306 128 128 128z"></path>
<path fill="none" stroke-linejoin="round" stroke-linecap="round" stroke-miterlimit="4" stroke-width="85.3333"  d="M799.031 628.365c-5.163 11.699-6.703 24.674-4.425 37.257 2.283 12.582 8.282 24.196 17.225 33.335l2.325 2.33c7.215 7.202 12.937 15.757 16.841 25.178 3.904 9.417 5.914 19.511 5.914 29.705 0 10.197-2.010 20.292-5.914 29.709s-9.626 17.971-16.841 25.178c-7.202 7.211-15.761 12.932-25.178 16.836s-19.511 5.914-29.705 5.914c-10.197 0-20.292-2.010-29.709-5.914s-17.971-9.626-25.178-16.836l-2.33-2.33c-9.139-8.939-20.749-14.938-33.331-17.22s-25.562-0.742-37.261 4.42c-11.473 4.919-21.257 13.082-28.147 23.488s-10.59 22.601-10.641 35.085v6.592c0 20.574-8.171 40.307-22.72 54.857-14.549 14.545-34.283 22.72-54.857 22.72s-40.303-8.175-54.852-22.72c-14.549-14.549-22.724-34.283-22.724-54.857v-3.49c-0.299-12.838-4.454-25.289-11.925-35.733-7.471-10.449-17.911-18.402-29.964-22.835-11.699-5.163-24.677-6.703-37.259-4.425-12.583 2.283-24.193 8.282-33.335 17.225l-2.327 2.325c-7.205 7.215-15.761 12.937-25.178 16.841s-19.512 5.914-29.707 5.914c-10.194 0-20.289-2.010-29.707-5.914s-17.973-9.626-25.178-16.841c-7.213-7.202-12.935-15.761-16.838-25.178s-5.914-19.511-5.914-29.705c0-10.197 2.010-20.292 5.914-29.709s9.626-17.971 16.838-25.178l2.327-2.33c8.942-9.139 14.941-20.749 17.222-33.331s0.741-25.562-4.422-37.261c-4.916-11.473-13.081-21.257-23.487-28.147s-22.601-10.59-35.082-10.641h-6.594c-20.574 0-40.306-8.171-54.854-22.72s-22.721-34.283-22.721-54.857c0-20.574 8.173-40.303 22.721-54.852s34.28-22.724 54.854-22.724h3.491c12.838-0.299 25.29-4.454 35.735-11.925s18.402-17.911 22.835-29.964c5.163-11.699 6.703-24.677 4.422-37.259s-8.28-24.193-17.222-33.335l-2.327-2.327c-7.213-7.205-12.934-15.761-16.838-25.178s-5.914-19.512-5.914-29.707c0-10.194 2.010-20.289 5.914-29.707s9.626-17.973 16.838-25.178c7.205-7.213 15.761-12.935 25.178-16.838s19.512-5.914 29.707-5.914c10.194 0 20.289 2.010 29.707 5.914s17.973 9.626 25.178 16.838l2.327 2.327c9.142 8.942 20.752 14.941 33.335 17.222s25.56 0.741 37.259-4.422h3.103c11.472-4.916 21.257-13.081 28.148-23.487 6.893-10.406 10.592-22.601 10.639-35.082v-6.594c0-20.574 8.175-40.306 22.724-54.854 14.545-14.548 34.278-22.721 54.852-22.721s40.307 8.173 54.852 22.721c14.549 14.548 22.724 34.28 22.724 54.854v3.491c0.047 12.481 3.746 24.676 10.641 35.082 6.891 10.406 16.674 18.571 28.147 23.488 11.699 5.163 24.674 6.703 37.257 4.422s24.196-8.28 33.335-17.222l2.33-2.327c7.202-7.213 15.757-12.934 25.178-16.838 9.417-3.904 19.511-5.914 29.705-5.914 10.197 0 20.292 2.010 29.709 5.914s17.971 9.626 25.178 16.838c7.211 7.205 12.932 15.761 16.836 25.178s5.914 19.512 5.914 29.707c0 10.194-2.010 20.289-5.914 29.707s-9.626 17.973-16.836 25.178l-2.33 2.327c-8.939 9.142-14.938 20.752-17.22 33.335s-0.742 25.56 4.42 37.259v3.103c4.919 11.472 13.082 21.257 23.488 28.148 10.406 6.893 22.601 10.592 35.085 10.639h6.592c20.574 0 40.307 8.175 54.857 22.724 14.545 14.545 22.72 34.278 22.72 54.852s-8.175 40.307-22.72 54.852c-14.549 14.549-34.283 22.724-54.857 22.724h-3.49c-12.48 0.047-24.674 3.746-35.081 10.641-10.406 6.891-18.573 16.674-23.488 28.147z"></path>
</svg>
